<svg width="549" height="132" viewBox="0 0 549 132" fill="none" xmlns="http://www.w3.org/2000/svg">
<g filter="url(#filter0_d_102_198)">
<path d="M4.5875 51.656V45.256L64.8755 15.176V25.16L16.6195 47.944L64.8755 68.168V78.152L4.5875 51.656ZM135.694 68.552C135.694 74.0133 134.371 78.664 131.726 82.504C129.08 86.2587 125.283 89.16 120.334 91.208C115.47 93.256 109.71 94.28 103.054 94.28C99.6402 94.28 96.3548 94.1093 93.1975 93.768C90.1255 93.4267 87.3095 92.9573 84.7495 92.36C82.1895 91.6773 79.9282 90.8667 77.9655 89.928V78.92C81.0375 80.2853 84.8348 81.5227 89.3575 82.632C93.9655 83.7413 98.7015 84.296 103.566 84.296C108.088 84.296 111.886 83.6987 114.958 82.504C118.03 81.3093 120.334 79.6027 121.87 77.384C123.406 75.1653 124.174 72.5627 124.174 69.576C124.174 66.5893 123.534 64.072 122.254 62.024C120.974 59.976 118.755 58.0987 115.598 56.392C112.526 54.6 108.216 52.7227 102.67 50.76C98.7442 49.3093 95.2882 47.7733 92.3015 46.152C89.4002 44.4453 86.9682 42.5253 85.0055 40.392C83.0428 38.2587 81.5495 35.8267 80.5255 33.096C79.5868 30.3653 79.1175 27.208 79.1175 23.624C79.1175 18.76 80.3548 14.6213 82.8295 11.208C85.3042 7.70933 88.7175 5.02133 93.0695 3.144C97.5068 1.26666 102.584 0.327995 108.302 0.327995C113.336 0.327995 117.944 0.797328 122.126 1.73599C126.307 2.67466 130.104 3.912 133.518 5.448L129.934 15.304C126.776 13.9387 123.32 12.7867 119.566 11.848C115.896 10.9093 112.056 10.44 108.046 10.44C104.206 10.44 101.006 10.9947 98.4455 12.104C95.8855 13.2133 93.9655 14.792 92.6855 16.84C91.4055 18.8027 90.7655 21.1067 90.7655 23.752C90.7655 26.824 91.4055 29.384 92.6855 31.432C93.9655 33.48 96.0562 35.3147 98.9575 36.936C101.859 38.5573 105.784 40.3067 110.734 42.184C116.11 44.1467 120.632 46.28 124.302 48.584C128.056 50.8027 130.872 53.4907 132.75 56.648C134.712 59.8053 135.694 63.7733 135.694 68.552ZM178.552 23.24C186.914 23.24 193.101 25.0747 197.112 28.744C201.122 32.4133 203.128 38.2587 203.128 46.28V93H194.936L192.76 83.272H192.248C190.285 85.7467 188.237 87.8373 186.104 89.544C184.056 91.1653 181.666 92.36 178.936 93.128C176.29 93.896 173.048 94.28 169.208 94.28C165.112 94.28 161.4 93.5547 158.072 92.104C154.829 90.6533 152.269 88.4347 150.392 85.448C148.514 82.376 147.576 78.536 147.576 73.928C147.576 67.1013 150.264 61.8533 155.64 58.184C161.016 54.4293 169.293 52.3813 180.472 52.04L192.12 51.656V47.56C192.12 41.8427 190.882 37.8747 188.408 35.656C185.933 33.4373 182.434 32.328 177.912 32.328C174.328 32.328 170.914 32.8827 167.672 33.992C164.429 35.016 161.4 36.2107 158.583 37.576L155.128 29.128C158.114 27.5067 161.656 26.1413 165.752 25.032C169.848 23.8373 174.114 23.24 178.552 23.24ZM181.88 59.848C173.346 60.1893 167.416 61.5547 164.088 63.944C160.845 66.3333 159.224 69.704 159.224 74.056C159.224 77.896 160.376 80.712 162.68 82.504C165.069 84.296 168.098 85.192 171.768 85.192C177.57 85.192 182.392 83.6133 186.232 80.456C190.072 77.2133 191.992 72.264 191.992 65.608V59.464L181.88 59.848ZM247.229 85.064C248.936 85.064 250.686 84.936 252.478 84.68C254.27 84.3387 255.72 83.9973 256.83 83.656V92.232C255.635 92.8293 253.928 93.2987 251.71 93.64C249.491 94.0667 247.358 94.28 245.31 94.28C241.726 94.28 238.398 93.6827 235.326 92.488C232.339 91.208 229.907 89.032 228.03 85.96C226.152 82.888 225.214 78.5787 225.214 73.032V33.096H215.486V27.72L225.342 23.24L229.822 8.64799H236.478V24.392H256.318V33.096H236.478V72.776C236.478 76.9573 237.459 80.072 239.422 82.12C241.47 84.0827 244.072 85.064 247.229 85.064ZM259.816 24.392H271.848L286.696 63.432C287.549 65.736 288.317 67.9547 289 70.088C289.768 72.2213 290.45 74.312 291.048 76.36C291.645 78.3227 292.114 80.2427 292.456 82.12H292.968C293.48 79.9867 294.29 77.2133 295.4 73.8C296.509 70.3013 297.661 66.8027 298.856 63.304L312.808 24.392H324.968L295.4 102.472C293.778 106.739 291.858 110.451 289.64 113.608C287.506 116.851 284.861 119.325 281.704 121.032C278.632 122.824 274.877 123.72 270.44 123.72C268.392 123.72 266.6 123.592 265.064 123.336C263.528 123.165 262.205 122.952 261.096 122.696V113.736C262.034 113.907 263.144 114.077 264.424 114.248C265.789 114.419 267.197 114.504 268.648 114.504C271.293 114.504 273.554 113.992 275.432 112.968C277.394 112.029 279.058 110.621 280.424 108.744C281.789 106.952 282.941 104.819 283.88 102.344L287.464 93.256L259.816 24.392ZM361.802 23.24C370.164 23.24 376.351 25.0747 380.362 28.744C384.372 32.4133 386.378 38.2587 386.378 46.28V93H378.186L376.01 83.272H375.498C373.535 85.7467 371.487 87.8373 369.354 89.544C367.306 91.1653 364.916 92.36 362.186 93.128C359.54 93.896 356.298 94.28 352.458 94.28C348.362 94.28 344.65 93.5547 341.322 92.104C338.079 90.6533 335.519 88.4347 333.642 85.448C331.764 82.376 330.826 78.536 330.826 73.928C330.826 67.1013 333.514 61.8533 338.89 58.184C344.266 54.4293 352.543 52.3813 363.722 52.04L375.37 51.656V47.56C375.37 41.8427 374.132 37.8747 371.658 35.656C369.183 33.4373 365.684 32.328 361.162 32.328C357.578 32.328 354.164 32.8827 350.922 33.992C347.679 35.016 344.65 36.2107 341.833 37.576L338.378 29.128C341.364 27.5067 344.906 26.1413 349.002 25.032C353.098 23.8373 357.364 23.24 361.802 23.24ZM365.13 59.848C356.596 60.1893 350.666 61.5547 347.338 63.944C344.095 66.3333 342.474 69.704 342.474 74.056C342.474 77.896 343.626 80.712 345.93 82.504C348.319 84.296 351.348 85.192 355.018 85.192C360.82 85.192 365.642 83.6133 369.482 80.456C373.322 77.2133 375.242 72.264 375.242 65.608V59.464L365.13 59.848ZM442.226 93H431.218L465.266 1.60799H476.274L442.226 93ZM483.963 78.152V68.168L532.219 48.072L483.963 25.16V15.176L544.251 45.256V51.656L483.963 78.152Z" fill="black"/>
<path d="M4.5875 51.656V45.256L64.8755 15.176V25.16L16.6195 47.944L64.8755 68.168V78.152L4.5875 51.656ZM135.694 68.552C135.694 74.0133 134.371 78.664 131.726 82.504C129.08 86.2587 125.283 89.16 120.334 91.208C115.47 93.256 109.71 94.28 103.054 94.28C99.6402 94.28 96.3548 94.1093 93.1975 93.768C90.1255 93.4267 87.3095 92.9573 84.7495 92.36C82.1895 91.6773 79.9282 90.8667 77.9655 89.928V78.92C81.0375 80.2853 84.8348 81.5227 89.3575 82.632C93.9655 83.7413 98.7015 84.296 103.566 84.296C108.088 84.296 111.886 83.6987 114.958 82.504C118.03 81.3093 120.334 79.6027 121.87 77.384C123.406 75.1653 124.174 72.5627 124.174 69.576C124.174 66.5893 123.534 64.072 122.254 62.024C120.974 59.976 118.755 58.0987 115.598 56.392C112.526 54.6 108.216 52.7227 102.67 50.76C98.7442 49.3093 95.2882 47.7733 92.3015 46.152C89.4002 44.4453 86.9682 42.5253 85.0055 40.392C83.0428 38.2587 81.5495 35.8267 80.5255 33.096C79.5868 30.3653 79.1175 27.208 79.1175 23.624C79.1175 18.76 80.3548 14.6213 82.8295 11.208C85.3042 7.70933 88.7175 5.02133 93.0695 3.144C97.5068 1.26666 102.584 0.327995 108.302 0.327995C113.336 0.327995 117.944 0.797328 122.126 1.73599C126.307 2.67466 130.104 3.912 133.518 5.448L129.934 15.304C126.776 13.9387 123.32 12.7867 119.566 11.848C115.896 10.9093 112.056 10.44 108.046 10.44C104.206 10.44 101.006 10.9947 98.4455 12.104C95.8855 13.2133 93.9655 14.792 92.6855 16.84C91.4055 18.8027 90.7655 21.1067 90.7655 23.752C90.7655 26.824 91.4055 29.384 92.6855 31.432C93.9655 33.48 96.0562 35.3147 98.9575 36.936C101.859 38.5573 105.784 40.3067 110.734 42.184C116.11 44.1467 120.632 46.28 124.302 48.584C128.056 50.8027 130.872 53.4907 132.75 56.648C134.712 59.8053 135.694 63.7733 135.694 68.552ZM178.552 23.24C186.914 23.24 193.101 25.0747 197.112 28.744C201.122 32.4133 203.128 38.2587 203.128 46.28V93H194.936L192.76 83.272H192.248C190.285 85.7467 188.237 87.8373 186.104 89.544C184.056 91.1653 181.666 92.36 178.936 93.128C176.29 93.896 173.048 94.28 169.208 94.28C165.112 94.28 161.4 93.5547 158.072 92.104C154.829 90.6533 152.269 88.4347 150.392 85.448C148.514 82.376 147.576 78.536 147.576 73.928C147.576 67.1013 150.264 61.8533 155.64 58.184C161.016 54.4293 169.293 52.3813 180.472 52.04L192.12 51.656V47.56C192.12 41.8427 190.882 37.8747 188.408 35.656C185.933 33.4373 182.434 32.328 177.912 32.328C174.328 32.328 170.914 32.8827 167.672 33.992C164.429 35.016 161.4 36.2107 158.583 37.576L155.128 29.128C158.114 27.5067 161.656 26.1413 165.752 25.032C169.848 23.8373 174.114 23.24 178.552 23.24ZM181.88 59.848C173.346 60.1893 167.416 61.5547 164.088 63.944C160.845 66.3333 159.224 69.704 159.224 74.056C159.224 77.896 160.376 80.712 162.68 82.504C165.069 84.296 168.098 85.192 171.768 85.192C177.57 85.192 182.392 83.6133 186.232 80.456C190.072 77.2133 191.992 72.264 191.992 65.608V59.464L181.88 59.848ZM247.229 85.064C248.936 85.064 250.686 84.936 252.478 84.68C254.27 84.3387 255.72 83.9973 256.83 83.656V92.232C255.635 92.8293 253.928 93.2987 251.71 93.64C249.491 94.0667 247.358 94.28 245.31 94.28C241.726 94.28 238.398 93.6827 235.326 92.488C232.339 91.208 229.907 89.032 228.03 85.96C226.152 82.888 225.214 78.5787 225.214 73.032V33.096H215.486V27.72L225.342 23.24L229.822 8.64799H236.478V24.392H256.318V33.096H236.478V72.776C236.478 76.9573 237.459 80.072 239.422 82.12C241.47 84.0827 244.072 85.064 247.229 85.064ZM259.816 24.392H271.848L286.696 63.432C287.549 65.736 288.317 67.9547 289 70.088C289.768 72.2213 290.45 74.312 291.048 76.36C291.645 78.3227 292.114 80.2427 292.456 82.12H292.968C293.48 79.9867 294.29 77.2133 295.4 73.8C296.509 70.3013 297.661 66.8027 298.856 63.304L312.808 24.392H324.968L295.4 102.472C293.778 106.739 291.858 110.451 289.64 113.608C287.506 116.851 284.861 119.325 281.704 121.032C278.632 122.824 274.877 123.72 270.44 123.72C268.392 123.72 266.6 123.592 265.064 123.336C263.528 123.165 262.205 122.952 261.096 122.696V113.736C262.034 113.907 263.144 114.077 264.424 114.248C265.789 114.419 267.197 114.504 268.648 114.504C271.293 114.504 273.554 113.992 275.432 112.968C277.394 112.029 279.058 110.621 280.424 108.744C281.789 106.952 282.941 104.819 283.88 102.344L287.464 93.256L259.816 24.392ZM361.802 23.24C370.164 23.24 376.351 25.0747 380.362 28.744C384.372 32.4133 386.378 38.2587 386.378 46.28V93H378.186L376.01 83.272H375.498C373.535 85.7467 371.487 87.8373 369.354 89.544C367.306 91.1653 364.916 92.36 362.186 93.128C359.54 93.896 356.298 94.28 352.458 94.28C348.362 94.28 344.65 93.5547 341.322 92.104C338.079 90.6533 335.519 88.4347 333.642 85.448C331.764 82.376 330.826 78.536 330.826 73.928C330.826 67.1013 333.514 61.8533 338.89 58.184C344.266 54.4293 352.543 52.3813 363.722 52.04L375.37 51.656V47.56C375.37 41.8427 374.132 37.8747 371.658 35.656C369.183 33.4373 365.684 32.328 361.162 32.328C357.578 32.328 354.164 32.8827 350.922 33.992C347.679 35.016 344.65 36.2107 341.833 37.576L338.378 29.128C341.364 27.5067 344.906 26.1413 349.002 25.032C353.098 23.8373 357.364 23.24 361.802 23.24ZM365.13 59.848C356.596 60.1893 350.666 61.5547 347.338 63.944C344.095 66.3333 342.474 69.704 342.474 74.056C342.474 77.896 343.626 80.712 345.93 82.504C348.319 84.296 351.348 85.192 355.018 85.192C360.82 85.192 365.642 83.6133 369.482 80.456C373.322 77.2133 375.242 72.264 375.242 65.608V59.464L365.13 59.848ZM442.226 93H431.218L465.266 1.60799H476.274L442.226 93ZM483.963 78.152V68.168L532.219 48.072L483.963 25.16V15.176L544.251 45.256V51.656L483.963 78.152Z" fill="url(#paint0_linear_102_198)"/>
</g>
<defs>
<filter id="filter0_d_102_198" x="0.587524" y="0.328003" width="547.663" height="131.392" filterUnits="userSpaceOnUse" color-interpolation-filters="sRGB">
<feFlood flood-opacity="0" result="BackgroundImageFix"/>
<feColorMatrix in="SourceAlpha" type="matrix" values="0 0 0 0 0 0 0 0 0 0 0 0 0 0 0 0 0 0 127 0" result="hardAlpha"/>
<feOffset dy="4"/>
<feGaussianBlur stdDeviation="2"/>
<feComposite in2="hardAlpha" operator="out"/>
<feColorMatrix type="matrix" values="0 0 0 0 0 0 0 0 0 0 0 0 0 0 0 0 0 0 0.25 0"/>
<feBlend mode="normal" in2="BackgroundImageFix" result="effect1_dropShadow_102_198"/>
<feBlend mode="normal" in="SourceGraphic" in2="effect1_dropShadow_102_198" result="shape"/>
</filter>
<linearGradient id="paint0_linear_102_198" x1="104.411" y1="12.625" x2="417.448" y2="213.626" gradientUnits="userSpaceOnUse">
<stop stop-color="#00C0FD"/>
<stop offset="1" stop-color="#E70FAA"/>
</linearGradient>
</defs>
</svg>
