<svg width="98" height="39" viewBox="0 0 98 39" fill="none" xmlns="http://www.w3.org/2000/svg">
<path d="M18.7597 21.36C18.7597 23.0667 18.3464 24.52 17.5197 25.72C16.693 26.8933 15.5064 27.8 13.9597 28.44C12.4397 29.08 10.6397 29.4 8.55969 29.4C7.49302 29.4 6.46635 29.3467 5.47969 29.24C4.51969 29.1333 3.63969 28.9867 2.83969 28.8C2.03969 28.5867 1.33302 28.3333 0.719688 28.04V24.6C1.67969 25.0267 2.86635 25.4133 4.27969 25.76C5.71969 26.1067 7.19969 26.28 8.71969 26.28C10.133 26.28 11.3197 26.0933 12.2797 25.72C13.2397 25.3467 13.9597 24.8133 14.4397 24.12C14.9197 23.4267 15.1597 22.6133 15.1597 21.68C15.1597 20.7467 14.9597 19.96 14.5597 19.32C14.1597 18.68 13.4664 18.0933 12.4797 17.56C11.5197 17 10.173 16.4133 8.43969 15.8C7.21302 15.3467 6.13302 14.8667 5.19969 14.36C4.29302 13.8267 3.53302 13.2267 2.91969 12.56C2.30635 11.8933 1.83969 11.1333 1.51969 10.28C1.22635 9.42667 1.07969 8.44 1.07969 7.32C1.07969 5.8 1.46635 4.50666 2.23969 3.44C3.01302 2.34667 4.07969 1.50667 5.43969 0.919999C6.82635 0.333332 8.41302 0.0399985 10.1997 0.0399985C11.773 0.0399985 13.213 0.186665 14.5197 0.479998C15.8264 0.773332 17.013 1.16 18.0797 1.64L16.9597 4.72C15.973 4.29333 14.893 3.93333 13.7197 3.64C12.573 3.34667 11.373 3.2 10.1197 3.2C8.91969 3.2 7.91969 3.37333 7.11969 3.72C6.31969 4.06667 5.71969 4.56 5.31969 5.2C4.91969 5.81333 4.71969 6.53333 4.71969 7.36C4.71969 8.32 4.91969 9.12 5.31969 9.76C5.71969 10.4 6.37302 10.9733 7.27969 11.48C8.18635 11.9867 9.41302 12.5333 10.9597 13.12C12.6397 13.7333 14.053 14.4 15.1997 15.12C16.373 15.8133 17.253 16.6533 17.8397 17.64C18.453 18.6267 18.7597 19.8667 18.7597 21.36ZM32.1528 7.2C34.7661 7.2 36.6995 7.77333 37.9528 8.92C39.2061 10.0667 39.8328 11.8933 39.8328 14.4V29H37.2728L36.5928 25.96H36.4328C35.8195 26.7333 35.1795 27.3867 34.5128 27.92C33.8728 28.4267 33.1261 28.8 32.2728 29.04C31.4461 29.28 30.4328 29.4 29.2328 29.4C27.9528 29.4 26.7928 29.1733 25.7528 28.72C24.7395 28.2667 23.9395 27.5733 23.3528 26.64C22.7661 25.68 22.4728 24.48 22.4728 23.04C22.4728 20.9067 23.3128 19.2667 24.9928 18.12C26.6728 16.9467 29.2595 16.3067 32.7528 16.2L36.3928 16.08V14.8C36.3928 13.0133 36.0061 11.7733 35.2328 11.08C34.4595 10.3867 33.3661 10.04 31.9528 10.04C30.8328 10.04 29.7661 10.2133 28.7528 10.56C27.7395 10.88 26.7928 11.2533 25.9128 11.68L24.8328 9.04C25.7661 8.53333 26.8728 8.10667 28.1528 7.76C29.4328 7.38667 30.7661 7.2 32.1528 7.2ZM33.1928 18.64C30.5261 18.7467 28.6728 19.1733 27.6328 19.92C26.6195 20.6667 26.1128 21.72 26.1128 23.08C26.1128 24.28 26.4728 25.16 27.1928 25.72C27.9395 26.28 28.8861 26.56 30.0328 26.56C31.8461 26.56 33.3528 26.0667 34.5528 25.08C35.7528 24.0667 36.3528 22.52 36.3528 20.44V18.52L33.1928 18.64ZM53.6147 26.52C54.148 26.52 54.6947 26.48 55.2547 26.4C55.8147 26.2933 56.268 26.1867 56.6147 26.08V28.76C56.2414 28.9467 55.708 29.0933 55.0147 29.2C54.3214 29.3333 53.6547 29.4 53.0147 29.4C51.8947 29.4 50.8547 29.2133 49.8947 28.84C48.9614 28.44 48.2014 27.76 47.6147 26.8C47.028 25.84 46.7347 24.4933 46.7347 22.76V10.28H43.6947V8.6L46.7747 7.2L48.1747 2.64H50.2547V7.56H56.4547V10.28H50.2547V22.68C50.2547 23.9867 50.5614 24.96 51.1747 25.6C51.8147 26.2133 52.628 26.52 53.6147 26.52ZM57.5478 7.56H61.3078L65.9478 19.76C66.2145 20.48 66.4545 21.1733 66.6678 21.84C66.9078 22.5067 67.1211 23.16 67.3078 23.8C67.4945 24.4133 67.6411 25.0133 67.7478 25.6H67.9078C68.0678 24.9333 68.3211 24.0667 68.6678 23C69.0145 21.9067 69.3745 20.8133 69.7478 19.72L74.1078 7.56H77.9078L68.6678 31.96C68.1611 33.2933 67.5611 34.4533 66.8678 35.44C66.2011 36.4533 65.3745 37.2267 64.3878 37.76C63.4278 38.32 62.2545 38.6 60.8678 38.6C60.2278 38.6 59.6678 38.56 59.1878 38.48C58.7078 38.4267 58.2945 38.36 57.9478 38.28V35.48C58.2411 35.5333 58.5878 35.5867 58.9878 35.64C59.4145 35.6933 59.8545 35.72 60.3078 35.72C61.1345 35.72 61.8411 35.56 62.4278 35.24C63.0411 34.9467 63.5611 34.5067 63.9878 33.92C64.4145 33.36 64.7745 32.6933 65.0678 31.92L66.1878 29.08L57.5478 7.56ZM89.4184 7.2C92.0318 7.2 93.9651 7.77333 95.2184 8.92C96.4718 10.0667 97.0984 11.8933 97.0984 14.4V29H94.5384L93.8584 25.96H93.6984C93.0851 26.7333 92.4451 27.3867 91.7784 27.92C91.1384 28.4267 90.3918 28.8 89.5384 29.04C88.7118 29.28 87.6984 29.4 86.4984 29.4C85.2184 29.4 84.0584 29.1733 83.0184 28.72C82.0051 28.2667 81.2051 27.5733 80.6184 26.64C80.0318 25.68 79.7384 24.48 79.7384 23.04C79.7384 20.9067 80.5784 19.2667 82.2584 18.12C83.9384 16.9467 86.5251 16.3067 90.0184 16.2L93.6584 16.08V14.8C93.6584 13.0133 93.2718 11.7733 92.4984 11.08C91.7251 10.3867 90.6318 10.04 89.2184 10.04C88.0984 10.04 87.0318 10.2133 86.0184 10.56C85.0051 10.88 84.0584 11.2533 83.1784 11.68L82.0984 9.04C83.0318 8.53333 84.1384 8.10667 85.4184 7.76C86.6984 7.38667 88.0318 7.2 89.4184 7.2ZM90.4584 18.64C87.7918 18.7467 85.9384 19.1733 84.8984 19.92C83.8851 20.6667 83.3784 21.72 83.3784 23.08C83.3784 24.28 83.7384 25.16 84.4584 25.72C85.2051 26.28 86.1518 26.56 87.2984 26.56C89.1118 26.56 90.6184 26.0667 91.8184 25.08C93.0184 24.0667 93.6184 22.52 93.6184 20.44V18.52L90.4584 18.64Z" fill="black"/>
<path d="M18.7597 21.36C18.7597 23.0667 18.3464 24.52 17.5197 25.72C16.693 26.8933 15.5064 27.8 13.9597 28.44C12.4397 29.08 10.6397 29.4 8.55969 29.4C7.49302 29.4 6.46635 29.3467 5.47969 29.24C4.51969 29.1333 3.63969 28.9867 2.83969 28.8C2.03969 28.5867 1.33302 28.3333 0.719688 28.04V24.6C1.67969 25.0267 2.86635 25.4133 4.27969 25.76C5.71969 26.1067 7.19969 26.28 8.71969 26.28C10.133 26.28 11.3197 26.0933 12.2797 25.72C13.2397 25.3467 13.9597 24.8133 14.4397 24.12C14.9197 23.4267 15.1597 22.6133 15.1597 21.68C15.1597 20.7467 14.9597 19.96 14.5597 19.32C14.1597 18.68 13.4664 18.0933 12.4797 17.56C11.5197 17 10.173 16.4133 8.43969 15.8C7.21302 15.3467 6.13302 14.8667 5.19969 14.36C4.29302 13.8267 3.53302 13.2267 2.91969 12.56C2.30635 11.8933 1.83969 11.1333 1.51969 10.28C1.22635 9.42667 1.07969 8.44 1.07969 7.32C1.07969 5.8 1.46635 4.50666 2.23969 3.44C3.01302 2.34667 4.07969 1.50667 5.43969 0.919999C6.82635 0.333332 8.41302 0.0399985 10.1997 0.0399985C11.773 0.0399985 13.213 0.186665 14.5197 0.479998C15.8264 0.773332 17.013 1.16 18.0797 1.64L16.9597 4.72C15.973 4.29333 14.893 3.93333 13.7197 3.64C12.573 3.34667 11.373 3.2 10.1197 3.2C8.91969 3.2 7.91969 3.37333 7.11969 3.72C6.31969 4.06667 5.71969 4.56 5.31969 5.2C4.91969 5.81333 4.71969 6.53333 4.71969 7.36C4.71969 8.32 4.91969 9.12 5.31969 9.76C5.71969 10.4 6.37302 10.9733 7.27969 11.48C8.18635 11.9867 9.41302 12.5333 10.9597 13.12C12.6397 13.7333 14.053 14.4 15.1997 15.12C16.373 15.8133 17.253 16.6533 17.8397 17.64C18.453 18.6267 18.7597 19.8667 18.7597 21.36ZM32.1528 7.2C34.7661 7.2 36.6995 7.77333 37.9528 8.92C39.2061 10.0667 39.8328 11.8933 39.8328 14.4V29H37.2728L36.5928 25.96H36.4328C35.8195 26.7333 35.1795 27.3867 34.5128 27.92C33.8728 28.4267 33.1261 28.8 32.2728 29.04C31.4461 29.28 30.4328 29.4 29.2328 29.4C27.9528 29.4 26.7928 29.1733 25.7528 28.72C24.7395 28.2667 23.9395 27.5733 23.3528 26.64C22.7661 25.68 22.4728 24.48 22.4728 23.04C22.4728 20.9067 23.3128 19.2667 24.9928 18.12C26.6728 16.9467 29.2595 16.3067 32.7528 16.2L36.3928 16.08V14.8C36.3928 13.0133 36.0061 11.7733 35.2328 11.08C34.4595 10.3867 33.3661 10.04 31.9528 10.04C30.8328 10.04 29.7661 10.2133 28.7528 10.56C27.7395 10.88 26.7928 11.2533 25.9128 11.68L24.8328 9.04C25.7661 8.53333 26.8728 8.10667 28.1528 7.76C29.4328 7.38667 30.7661 7.2 32.1528 7.2ZM33.1928 18.64C30.5261 18.7467 28.6728 19.1733 27.6328 19.92C26.6195 20.6667 26.1128 21.72 26.1128 23.08C26.1128 24.28 26.4728 25.16 27.1928 25.72C27.9395 26.28 28.8861 26.56 30.0328 26.56C31.8461 26.56 33.3528 26.0667 34.5528 25.08C35.7528 24.0667 36.3528 22.52 36.3528 20.44V18.52L33.1928 18.64ZM53.6147 26.52C54.148 26.52 54.6947 26.48 55.2547 26.4C55.8147 26.2933 56.268 26.1867 56.6147 26.08V28.76C56.2414 28.9467 55.708 29.0933 55.0147 29.2C54.3214 29.3333 53.6547 29.4 53.0147 29.4C51.8947 29.4 50.8547 29.2133 49.8947 28.84C48.9614 28.44 48.2014 27.76 47.6147 26.8C47.028 25.84 46.7347 24.4933 46.7347 22.76V10.28H43.6947V8.6L46.7747 7.2L48.1747 2.64H50.2547V7.56H56.4547V10.28H50.2547V22.68C50.2547 23.9867 50.5614 24.96 51.1747 25.6C51.8147 26.2133 52.628 26.52 53.6147 26.52ZM57.5478 7.56H61.3078L65.9478 19.76C66.2145 20.48 66.4545 21.1733 66.6678 21.84C66.9078 22.5067 67.1211 23.16 67.3078 23.8C67.4945 24.4133 67.6411 25.0133 67.7478 25.6H67.9078C68.0678 24.9333 68.3211 24.0667 68.6678 23C69.0145 21.9067 69.3745 20.8133 69.7478 19.72L74.1078 7.56H77.9078L68.6678 31.96C68.1611 33.2933 67.5611 34.4533 66.8678 35.44C66.2011 36.4533 65.3745 37.2267 64.3878 37.76C63.4278 38.32 62.2545 38.6 60.8678 38.6C60.2278 38.6 59.6678 38.56 59.1878 38.48C58.7078 38.4267 58.2945 38.36 57.9478 38.28V35.48C58.2411 35.5333 58.5878 35.5867 58.9878 35.64C59.4145 35.6933 59.8545 35.72 60.3078 35.72C61.1345 35.72 61.8411 35.56 62.4278 35.24C63.0411 34.9467 63.5611 34.5067 63.9878 33.92C64.4145 33.36 64.7745 32.6933 65.0678 31.92L66.1878 29.08L57.5478 7.56ZM89.4184 7.2C92.0318 7.2 93.9651 7.77333 95.2184 8.92C96.4718 10.0667 97.0984 11.8933 97.0984 14.4V29H94.5384L93.8584 25.96H93.6984C93.0851 26.7333 92.4451 27.3867 91.7784 27.92C91.1384 28.4267 90.3918 28.8 89.5384 29.04C88.7118 29.28 87.6984 29.4 86.4984 29.4C85.2184 29.4 84.0584 29.1733 83.0184 28.72C82.0051 28.2667 81.2051 27.5733 80.6184 26.64C80.0318 25.68 79.7384 24.48 79.7384 23.04C79.7384 20.9067 80.5784 19.2667 82.2584 18.12C83.9384 16.9467 86.5251 16.3067 90.0184 16.2L93.6584 16.08V14.8C93.6584 13.0133 93.2718 11.7733 92.4984 11.08C91.7251 10.3867 90.6318 10.04 89.2184 10.04C88.0984 10.04 87.0318 10.2133 86.0184 10.56C85.0051 10.88 84.0584 11.2533 83.1784 11.68L82.0984 9.04C83.0318 8.53333 84.1384 8.10667 85.4184 7.76C86.6984 7.38667 88.0318 7.2 89.4184 7.2ZM90.4584 18.64C87.7918 18.7467 85.9384 19.1733 84.8984 19.92C83.8851 20.6667 83.3784 21.72 83.3784 23.08C83.3784 24.28 83.7384 25.16 84.4584 25.72C85.2051 26.28 86.1518 26.56 87.2984 26.56C89.1118 26.56 90.6184 26.0667 91.8184 25.08C93.0184 24.0667 93.6184 22.52 93.6184 20.44V18.52L90.4584 18.64Z" fill="url(#paint0_linear_102_198)"/>
<defs>
<linearGradient id="paint0_linear_102_198" x1="29.146" y1="6.37501" x2="77.0755" y2="21.817" gradientUnits="userSpaceOnUse">
<stop stop-color="#00C0FD"/>
<stop offset="1" stop-color="#E70FAA"/>
</linearGradient>
</defs>
</svg>
